<?xml version="1.0" encoding="UTF-8" standalone="no"?>
<!-- Created with Inkscape (http://www.inkscape.org/) -->

<svg
   width="210mm"
   height="297mm"
   viewBox="0 0 210 297"
   version="1.1"
   id="svg1"
   xml:space="preserve"
   inkscape:version="1.3.2 (091e20e, 2023-11-25, custom)"
   sodipodi:docname="logo.svg"
   xmlns:inkscape="http://www.inkscape.org/namespaces/inkscape"
   xmlns:sodipodi="http://sodipodi.sourceforge.net/DTD/sodipodi-0.dtd"
   xmlns:xlink="http://www.w3.org/1999/xlink"
   xmlns="http://www.w3.org/2000/svg"
   xmlns:svg="http://www.w3.org/2000/svg"><sodipodi:namedview
     id="namedview1"
     pagecolor="#ffffff"
     bordercolor="#000000"
     borderopacity="0.25"
     inkscape:showpageshadow="2"
     inkscape:pageopacity="0.0"
     inkscape:pagecheckerboard="0"
     inkscape:deskcolor="#d1d1d1"
     inkscape:document-units="mm"
     inkscape:zoom="1.3843855"
     inkscape:cx="264.01605"
     inkscape:cy="412.09619"
     inkscape:window-width="1920"
     inkscape:window-height="991"
     inkscape:window-x="-9"
     inkscape:window-y="-9"
     inkscape:window-maximized="1"
     inkscape:current-layer="layer2" /><defs
     id="defs1"><linearGradient
       id="swatch22"><stop
         style="stop-color:#000000;stop-opacity:1;"
         offset="0"
         id="stop22" /></linearGradient><linearGradient
       inkscape:collect="always"
       xlink:href="#swatch22"
       id="linearGradient23"
       gradientUnits="userSpaceOnUse"
       x1="113.67173"
       y1="123.8188"
       x2="131.67088"
       y2="123.8188"
       gradientTransform="translate(0.05512086,-0.14495826)" /></defs><g
     inkscape:groupmode="layer"
     id="layer2"
     inkscape:label="Lapis 2"
     style="display:inline;opacity:1"><path
       style="fill:none;stroke:#000000;stroke-width:2;stroke-linecap:round;stroke-linejoin:round;stroke-dasharray:none;stroke-opacity:1;paint-order:stroke markers fill"
       d="m 64.407335,80.27027 -0.191119,93.07529 81.799224,0.19112 -1.72007,-93.45753 z"
       id="path1" /><path
       style="fill:none;stroke:#000000;stroke-width:1.94295;stroke-linecap:round;stroke-linejoin:miter;stroke-dasharray:none;stroke-opacity:1;paint-order:stroke markers fill"
       d="m 74.698997,112.11465 0.191294,55.14333 h 62.553549 l -1.33906,-55.86416 z"
       id="path2" /><g
       id="g4"
       transform="matrix(1.07443,0,0,1.0062901,-12.858884,-0.69721285)"><path
         style="fill:none;stroke:#000000;stroke-width:2;stroke-linecap:round;stroke-linejoin:round;stroke-dasharray:none;stroke-opacity:1;paint-order:stroke markers fill"
         d="m 81.292066,87.531623 0.82183,12.688287 6.610026,0.25869 0.146736,-12.945783 7.204581,0.179526 0.370644,13.250847 c 2.832679,0.094 7.720687,-0.68988 8.498037,0.28188 l -0.51738,-13.712253 9.23932,-0.100363 -0.23221,12.987956 9.11812,-0.0634 -0.29149,-12.992157 14.96366,-0.596545 0.37064,17.766512"
         id="path3"
         sodipodi:nodetypes="cccccccccccccc" /></g><path
       style="fill:none;stroke:#000000;stroke-width:1.98411;stroke-linecap:round;stroke-linejoin:round;stroke-dasharray:none;stroke-opacity:1;paint-order:stroke markers fill"
       d="m 126.59811,87.267804 0.55647,15.827516"
       id="path4" /><path
       d="m 111.01856,130.2065 c -1.29625,-1.33505 -3.01869,-2.07151 -4.85208,-2.07151 -1.83342,0 -3.55587,0.73541 -4.85211,2.07151 l -1.46631,-1.51139 c 1.6872,-1.73908 3.93127,-2.69681 6.31842,-2.69681 2.38716,0 4.63123,0.95773 6.31838,2.69681 z m -4.85208,-6.34702 c 2.87038,0 5.56763,1.1512 7.59597,3.243 l 1.46631,-1.5114 c -2.41929,-2.49476 -5.63708,-3.86937 -9.06228,-3.86937 -3.42519,0 -6.642976,1.37461 -9.062309,3.86937 l 1.466341,1.5114 c 2.028338,-2.0918 4.726628,-3.243 7.595968,-3.243 z m 12.44393,17.10205 v 6.41327 H 93.722554 v -6.41327 c 0,-1.76793 1.395801,-3.20664 3.110986,-3.20664 h 2.137211 l -4.752515,-8.55424 1.800227,-1.06244 5.343597,9.61668 h 9.60986 l 5.34363,-9.61668 1.8002,1.06244 -4.75252,8.55424 h 2.13722 c 1.71518,0 3.11098,1.43871 3.11098,3.20664 z m -2.07399,0 c 0,-0.59002 -0.46457,-1.06887 -1.03699,-1.06887 H 96.83354 c -0.572426,0 -1.037021,0.47885 -1.037021,1.06887 v 4.27553 h 20.739901 z"
       id="path1-2"
       style="stroke-width:1.05281"
       sodipodi:nodetypes="csccsccsccsccscccssccccccccsccssssccs" /><ellipse
       style="fill:#000000;fill-opacity:0;stroke:#000000;stroke-width:0.645668;stroke-linecap:round;stroke-linejoin:round;stroke-dasharray:none;stroke-opacity:1;paint-order:stroke fill markers"
       id="path15"
       cx="106.11921"
       cy="131.87257"
       rx="1.0750483"
       ry="1.1944981" /><path
       style="fill:#000000;fill-opacity:0;stroke:#000000;stroke-width:0.440687;stroke-linecap:round;stroke-linejoin:round;stroke-dasharray:none;stroke-opacity:1;paint-order:stroke fill markers"
       d="m 399.80068,501.16467 c -1.8852,-1.27044 -1.8852,-4.22674 0,-5.49718 1.21779,-0.82067 2.74554,-0.33856 3.57654,1.12866 1.47832,2.61011 -1.24672,5.93858 -3.57654,4.36852 z"
       id="path16"
       transform="scale(0.26458333)" /><path
       style="fill:#000000;fill-opacity:0;stroke:#000000;stroke-width:0.440687;stroke-linecap:round;stroke-linejoin:round;stroke-dasharray:none;stroke-opacity:1;paint-order:stroke fill markers"
       d="m 399.80568,500.72697 c -1.43006,-1.20331 -1.43006,-3.41848 0,-4.62179 1.92984,-1.62386 4.54805,1.29699 3.28803,3.66811 -0.74323,1.39862 -2.24247,1.83347 -3.28803,0.95368 z"
       id="path17"
       transform="scale(0.26458333)" /><path
       style="fill:#000000;fill-opacity:0;stroke:#000000;stroke-width:0.440687;stroke-linecap:round;stroke-linejoin:round;stroke-dasharray:none;stroke-opacity:1;paint-order:stroke fill markers"
       d="m 400.108,500.47687 c -1.34786,-1.06023 -1.34786,-3.06135 0,-4.12158 1.6292,-1.28153 3.72427,1.23073 2.69164,3.22762 -0.62247,1.20374 -1.80045,1.59497 -2.69164,0.89396 z"
       id="path18"
       transform="scale(0.26458333)" /><path
       style="fill:#000000;fill-opacity:0;stroke:#000000;stroke-width:0.440687;stroke-linecap:round;stroke-linejoin:round;stroke-dasharray:none;stroke-opacity:1;paint-order:stroke fill markers"
       d="m 400.01567,499.85448 c -0.44651,-0.50854 -0.56047,-0.80101 -0.56047,-1.4384 0,-0.63739 0.11396,-0.92986 0.56047,-1.4384 0.68632,-0.78169 1.22045,-0.81688 1.98808,-0.131 0.46094,0.41185 0.58468,0.68291 0.65745,1.4402 0.0844,0.87864 0.0526,0.96986 -0.5469,1.5694 -0.82936,0.82935 -1.36928,0.82889 -2.09863,-0.002 z"
       id="path19"
       transform="scale(0.26458333)" /><path
       style="fill:#000000;fill-opacity:0;stroke:#000000;stroke-width:0.440687;stroke-linecap:round;stroke-linejoin:round;stroke-dasharray:none;stroke-opacity:1;paint-order:stroke fill markers"
       d="m 400.28389,499.57603 c -0.29915,-0.35552 -0.46752,-0.77326 -0.46752,-1.15995 0,-0.69754 0.75013,-1.71557 1.2641,-1.71557 0.18099,0 0.53945,0.25003 0.79659,0.55562 0.63966,0.76019 0.6327,1.69011 -0.0177,2.36902 -0.62352,0.65082 -0.99624,0.6392 -1.57543,-0.0491 z"
       id="path20"
       transform="scale(0.26458333)" /><path
       style="fill:#000000;fill-opacity:0;stroke:#000000;stroke-width:0.440687;stroke-linecap:round;stroke-linejoin:round;stroke-dasharray:none;stroke-opacity:1;paint-order:stroke fill markers"
       d="m 400.08725,503.94365 c -4.01861,-1.04628 -5.515,-6.25083 -2.69804,-9.38397 2.11456,-2.35189 5.34588,-2.32157 7.45094,0.0699 1.8362,2.08603 1.8362,5.48695 0,7.57298 -1.22112,1.38727 -3.25301,2.13159 -4.7529,1.74108 z m 0.0938,-2.47346 c -0.48323,-0.20958 -0.56868,-0.30957 -0.36968,-0.43256 0.14236,-0.088 0.50645,-0.12457 0.8091,-0.0813 l 0.55026,0.0786 -0.50816,-0.16826 c -0.72373,-0.23963 -1.0382,-0.54397 -1.41264,-1.36712 -0.18073,-0.39729 -0.33038,-0.61542 -0.33256,-0.48474 -0.002,0.13068 0.0807,0.39587 0.18426,0.5893 0.11849,0.2214 0.12639,0.46216 0.0213,0.64989 -0.14345,0.25635 -0.20688,0.22432 -0.45186,-0.22812 -0.15675,-0.28948 -0.28794,-0.44507 -0.29154,-0.34574 -0.024,0.66028 1.46324,2.08541 2.15912,2.06899 0.14898,-0.004 -0.012,-0.12906 -0.35763,-0.27898 z m 2.30057,-0.0735 c 0.56244,-0.34292 1.31354,-1.33492 1.29969,-1.71653 -0.004,-0.0993 -0.12779,0.0429 -0.27597,0.31602 -0.29269,0.53951 -0.54742,0.67985 -0.36336,0.20019 0.0951,-0.24785 0.0687,-0.25902 -0.16126,-0.0682 -0.15126,0.12553 -0.27502,0.16771 -0.27502,0.0937 0,-0.074 -0.11929,-0.0355 -0.2651,0.0855 -0.14581,0.12101 -0.24739,0.30984 -0.22573,0.41963 0.0217,0.10978 -0.24505,0.30736 -0.59268,0.43907 -0.41969,0.159 -0.48036,0.21527 -0.18059,0.16746 0.24831,-0.0396 0.60701,-0.13688 0.79712,-0.2162 0.24211,-0.101 0.30706,-0.0818 0.21684,0.0642 -0.0708,0.11463 -0.38891,0.28364 -0.70682,0.37558 -0.36998,0.10699 -0.44802,0.17278 -0.21684,0.18277 0.19864,0.009 0.62602,-0.14587 0.94972,-0.34324 z m -1.63068,-0.11008 c -0.06,-0.06 -0.21576,-0.0664 -0.34612,-0.0143 -0.14406,0.0577 -0.10127,0.10044 0.1091,0.1091 0.19037,0.008 0.29703,-0.0348 0.23702,-0.0949 z m -0.13168,-0.79382 c -0.21041,-0.13598 -0.14995,-0.18171 0.27088,-0.20488 0.54069,-0.0298 0.54078,-0.03 0.0492,-0.10466 -0.44832,-0.0681 -0.98697,-0.61811 -1.28861,-1.31573 -0.0644,-0.14898 -0.0727,-0.0406 -0.0185,0.24086 0.0686,0.35583 0.0359,0.47299 -0.10723,0.38453 -0.15299,-0.0946 -0.15449,-0.0313 -0.006,0.24648 0.21825,0.40781 0.89017,0.93562 1.18546,0.93122 0.10205,-0.002 0.0637,-0.0815 -0.0853,-0.17782 z m 1.44806,-0.33676 c 0.36918,-0.36918 0.48777,-0.6304 0.4141,-0.91212 -0.0973,-0.37221 -0.12462,-0.36071 -0.4775,0.20132 -0.20585,0.32785 -0.37813,0.66917 -0.38285,0.75848 -0.005,0.0893 -0.17111,0.22581 -0.36976,0.30334 -0.32418,0.12651 -0.32738,0.14224 -0.0312,0.15363 0.18145,0.007 0.56272,-0.22011 0.84726,-0.50465 z m -0.37765,-0.68081 c 0.20585,-0.2617 0.37428,-0.73832 0.37428,-1.05916 0,-0.68187 -0.6022,-1.53498 -1.08352,-1.53498 -0.48132,0 -1.08351,0.85311 -1.08351,1.53498 0,0.68187 0.60219,1.53497 1.08351,1.53497 0.18423,0 0.50339,-0.21411 0.70924,-0.47581 z m 1.46328,0.12527 c 0.004,0.18873 0.0571,0.17153 0.19337,-0.0626 0.10333,-0.17755 0.14791,-0.42134 0.0991,-0.54175 -0.0488,-0.12041 -0.10095,-0.0564 -0.11577,0.14224 -0.0243,0.32614 -0.0392,0.3301 -0.1536,0.0408 -0.10396,-0.263 -0.16541,-0.21448 -0.34304,0.27088 -0.19543,0.53401 -0.19068,0.55733 0.049,0.24075 0.19135,-0.2527 0.26697,-0.2779 0.27093,-0.0903 z m -4.93852,-0.58624 c -0.0576,-0.14406 -0.10044,-0.10127 -0.10911,0.1091 -0.008,0.19037 0.0348,0.29703 0.0949,0.23702 0.06,-0.06 0.0664,-0.21576 0.0143,-0.34612 z m 0.36117,0 c -0.0576,-0.14406 -0.10044,-0.10127 -0.10911,0.1091 -0.008,0.19037 0.0348,0.29703 0.0949,0.23702 0.06,-0.06 0.0664,-0.21576 0.0143,-0.34612 z m 5.23698,0 c -0.0577,-0.14406 -0.10044,-0.10127 -0.10911,0.1091 -0.008,0.19037 0.0348,0.29703 0.0949,0.23702 0.06,-0.06 0.0664,-0.21576 0.0143,-0.34612 z m -1.08728,-1.27539 c -0.0501,-0.12415 -0.0911,-0.0226 -0.0911,0.22573 0,0.24831 0.041,0.34989 0.0911,0.22574 0.0501,-0.12416 0.0501,-0.32732 0,-0.45147 z m -2.28382,-0.88461 c 0.31195,-0.26299 0.31918,-0.31074 0.062,-0.40943 -0.32402,-0.12434 -0.70975,0.13483 -0.9956,0.66893 -0.13821,0.25825 -0.13363,0.31861 0.0171,0.22546 0.14442,-0.0893 0.17206,0.0255 0.0926,0.38452 l -0.1132,0.51174 0.29197,-0.54175 c 0.16058,-0.29797 0.45087,-0.67573 0.6451,-0.83947 z m -2.22705,0.71531 c -0.0576,-0.14406 -0.10044,-0.10127 -0.10911,0.10911 -0.008,0.19036 0.0348,0.29702 0.0949,0.23701 0.06,-0.06 0.0664,-0.21576 0.0143,-0.34612 z m 0.36117,0 c -0.0576,-0.14406 -0.10044,-0.10127 -0.10911,0.10911 -0.008,0.19036 0.0348,0.29702 0.0949,0.23701 0.06,-0.06 0.0664,-0.21576 0.0143,-0.34612 z m 1.68249,-1.47233 c 0.48578,-0.25547 0.52722,-0.30945 0.17909,-0.23325 -0.24913,0.0545 -0.57259,0.0252 -0.7188,-0.0651 -0.20883,-0.12906 -0.13106,-0.22275 0.36267,-0.43688 0.34568,-0.14992 0.50661,-0.27547 0.35763,-0.27898 -0.69588,-0.0164 -2.18309,1.40871 -2.15912,2.06899 0.004,0.0993 0.13479,-0.0563 0.29154,-0.34574 0.24498,-0.45245 0.30841,-0.48447 0.45186,-0.22813 0.10506,0.18773 0.0972,0.4285 -0.0213,0.6499 -0.10352,0.19343 -0.18822,0.45551 -0.18822,0.58241 0,0.1269 0.18284,-0.13187 0.40631,-0.57503 0.25726,-0.51015 0.6382,-0.9277 1.03837,-1.13814 z m 2.97732,0.9599 c -0.36927,-0.71409 -0.21757,-0.93676 0.16157,-0.23716 0.15278,0.28191 0.28073,0.43131 0.28433,0.33199 0.024,-0.66028 -1.46325,-2.08542 -2.15912,-2.06899 -0.14898,0.004 0.006,0.12635 0.34335,0.27297 0.33783,0.14662 0.56826,0.31255 0.51208,0.36874 -0.0562,0.0562 -0.2663,0.0143 -0.46692,-0.0931 -0.20062,-0.10737 -0.47169,-0.19203 -0.60237,-0.18815 -0.13068,0.004 0.0322,0.12427 0.36204,0.26752 0.3298,0.14325 0.55195,0.33761 0.49366,0.43192 -0.10704,0.17318 0.21149,0.45943 0.51692,0.46454 0.091,0.002 0.20316,0.11565 0.24916,0.25363 0.0503,0.151 0.003,0.20118 -0.11832,0.12606 -0.1308,-0.0808 -0.16201,-0.0207 -0.0886,0.17059 0.0873,0.22753 0.14622,0.24222 0.2564,0.0639 0.0979,-0.15836 0.18512,-0.0638 0.27631,0.2995 0.0733,0.29202 0.16507,0.43551 0.20396,0.31885 0.0389,-0.11666 -0.0621,-0.46895 -0.22446,-0.78288 z m -0.77685,0.29608 c 0.11074,0.0684 0.10409,-0.0346 -0.0168,-0.26049 -0.21825,-0.40781 -0.89017,-0.93562 -1.18546,-0.93122 -0.10206,0.002 -0.0637,0.0798 0.0853,0.174 0.14899,0.0942 0.27376,0.23515 0.27728,0.31326 0.015,0.33291 0.51029,1.02987 0.58104,0.81762 0.0415,-0.12451 0.15789,-0.17543 0.25864,-0.11317 z m -0.98528,-1.48416 c -0.06,-0.06 -0.21576,-0.0664 -0.34612,-0.0143 -0.14406,0.0577 -0.10127,0.10044 0.1091,0.10911 0.19037,0.008 0.29703,-0.0348 0.23702,-0.0948 z m -0.72234,-0.36117 c -0.06,-0.06 -0.21576,-0.0664 -0.34612,-0.0143 -0.14406,0.0576 -0.10127,0.10044 0.1091,0.1091 0.19037,0.008 0.29703,-0.0348 0.23702,-0.0948 z"
       id="path21"
       transform="scale(0.26458333)" /><text
       xml:space="preserve"
       style="font-size:3.88922px;font-family:'SolidWorks GDT';-inkscape-font-specification:'SolidWorks GDT';fill:#000000;fill-opacity:0;stroke:url(#linearGradient23);stroke-width:0.199;stroke-linecap:round;stroke-linejoin:round;stroke-dasharray:none;stroke-dashoffset:0;paint-order:stroke fill markers"
       x="113.7459"
       y="125.08862"
       id="text22"
       transform="scale(0.86682108,1.1536406)"><tspan
         sodipodi:role="line"
         id="tspan22"
         style="fill:#000000;fill-opacity:1;stroke:url(#linearGradient23);stroke-width:0.199;stroke-linecap:round;stroke-linejoin:round;stroke-dasharray:none;stroke-dashoffset:0;stroke-opacity:1;paint-order:stroke fill markers"
         x="113.7459"
         y="125.08862">AP-MODE</tspan></text></g><g
     inkscape:groupmode="layer"
     id="layer5"
     inkscape:label="Lapis 4"
     style="display:none"><g
       id="g14"><path
         style="fill:none;stroke:#000000;stroke-width:0.796929;stroke-linecap:butt;stroke-linejoin:miter;stroke-dasharray:none;stroke-opacity:1"
         d="m 83.703248,140.73811 c 0,0 9.269304,6.02026 15.934605,10.79826 0,0 30.794157,-5.44691 31.463077,-6.02027 0,0 -17.48746,-9.7471 -19.68533,-9.55598 0,0 -28.094592,4.10907 -27.712352,4.77799 z"
         id="path6"
         sodipodi:nodetypes="ccccc" /><path
         style="fill:none;stroke:#000000;stroke-width:0.796929;stroke-linecap:butt;stroke-linejoin:miter;stroke-dasharray:none;stroke-opacity:1"
         d="m 83.583799,140.73811 c 0,0 -0.525581,4.68243 -0.14334,5.18412 0,0 14.620657,11.1805 15.886827,11.22828 0,0 0.597247,-4.06129 0.262787,-5.68581"
         id="path7"
         sodipodi:nodetypes="cccc" /><path
         style="fill:none;stroke:#000000;stroke-width:0.796929;stroke-linecap:butt;stroke-linejoin:miter;stroke-dasharray:none;stroke-opacity:1"
         d="m 99.183266,157.10343 c 30.778584,-5.98004 31.251594,-6.74022 32.028654,-7.09496 0,0 0.30817,-3.89318 -0.0635,-4.46754"
         id="path8"
         sodipodi:nodetypes="ccc" /><path
         style="fill:none;stroke:#000000;stroke-width:0.796929;stroke-linecap:butt;stroke-linejoin:miter;stroke-dasharray:none;stroke-opacity:1"
         d="m 99.088386,147.76176 c 0,0 23.603274,-3.96574 23.842174,-4.25242"
         id="path9" /><path
         style="fill:none;stroke:#000000;stroke-width:0.796929;stroke-linecap:butt;stroke-linejoin:miter;stroke-dasharray:none;stroke-opacity:1"
         d="m 86.952911,139.70389 c 0,0 -4.6624,-11.62222 -4.324543,-12.23036 0.337854,-0.60813 -1.756847,-4.12183 -1.317636,-4.35833 0.439211,-0.23649 0.405427,-0.33785 0.878422,-0.50678 0.472999,-0.16892 1.554134,3.68262 2.060917,3.91912 0.506782,0.2365 6.115176,12.66957 6.115176,12.66957"
         id="path10" /><path
         style="fill:none;stroke:#000000;stroke-width:0.829657;stroke-linecap:butt;stroke-linejoin:miter;stroke-dasharray:none;stroke-opacity:1"
         d="m 105.84444,136.79653 c 0.21238,-0.80389 1.45123,-10.62534 2.08836,-11.28941 0.63713,-0.66409 0.46014,-4.47383 0.67252,-4.47383 0.21238,0 1.45123,-0.55923 1.45123,0.035 0,0.59418 -0.49555,2.58644 -0.28316,3.63498 0.21237,1.04855 -1.09728,11.70884 -1.09728,11.70884"
         id="path11" /><path
         style="fill:none;stroke:#000000;stroke-width:0.590392;stroke-linecap:butt;stroke-linejoin:miter;stroke-dasharray:none;stroke-opacity:1"
         d="m 123.97873,148.83954 c 0,0 0.009,1.40433 0.21138,1.65829 0.1086,0.13655 3.30564,-0.39295 3.30062,-0.80939 -0.005,-0.46974 -0.0298,-1.16747 -0.23143,-1.42145 -0.16143,-0.20296 -2.83472,0.33605 -3.28057,0.57255 z"
         id="path13-5"
         sodipodi:nodetypes="csssc" /><path
         style="fill:none;stroke:#000000;stroke-width:0.73519;stroke-linecap:butt;stroke-linejoin:miter;stroke-dasharray:none;stroke-opacity:1"
         d="m 111.84976,150.94786 c 0,0 -0.0515,1.8236 0.17817,2.1627 0.12344,0.18232 3.96061,-0.35638 3.97323,-0.89727 0.0143,-0.61007 0.0169,-1.51704 -0.21265,-1.85614 -0.18351,-0.271 -3.39636,0.3044 -3.93875,0.59071 z"
         id="path13"
         sodipodi:nodetypes="csssc" /><path
         style="fill:none;stroke:#000000;stroke-width:0.645668;stroke-linecap:butt;stroke-linejoin:miter;stroke-dasharray:none;stroke-opacity:1"
         d="m 118.56636,149.8432 c 0,0 -0.024,1.61868 0.17943,1.91701 0.10934,0.1604 3.43811,-0.36032 3.44292,-0.8404 0.005,-0.54149 -0.003,-1.34628 -0.20592,-1.64462 -0.16256,-0.23843 -2.94829,0.30792 -3.41643,0.56801 z"
         id="path13-1"
         sodipodi:nodetypes="csssc" /><ellipse
         style="fill:none;fill-opacity:0;stroke:#000000;stroke-width:0.645668;stroke-linecap:round;stroke-linejoin:round;stroke-dasharray:none;stroke-opacity:1;paint-order:stroke fill markers"
         id="path14"
         cx="104.2486"
         cy="153.75818"
         rx="1.0511583"
         ry="0.97948843" /></g></g></svg>
